# File created by Blade
# Date/Time:  Mon Sep 22 17:23:16 2014
# Frame Rate: 120.000 fps
#------------------------------------------------------
:FULLY-SPECIFIED
:DEGREES
4194
root 1.324440 37.469206 5.582218 -2.326097 -2.457733 2.798153
RightUpLeg 5.514817 1.130800 -5.253587
RightLeg 0.422000 -0.000000 -0.000000
RightFoot -11.969856 -23.393509 17.720351
RightToeBase 11.916634 -0.000000 -0.000000
LeftUpLeg 0.987570 -8.137109 -1.704755
LeftLeg 9.196260 -0.000000 -0.000000
LeftFoot -12.005315 13.986332 -20.522694
LeftToeBase 9.278019 -0.000000 -0.000000
Spine 11.221292 -8.648230 0.908474
RightShoulder -2.711934 -15.715738 -22.177883
RightArm 6.691921 21.262322 28.728331
RightForeArm -172.628226 -0.000000 39.377061
RightHand 95.879371 -0.000000 -160.148308
RightHandThumb1 -24.326973 -0.000000 -32.862282
LeftShoulder -26.480898 30.568003 6.371894
LeftArm 53.336288 -51.803215 -71.878910
LeftForeArm -13.139573 -0.000000 44.793050
LeftHand -32.403320 -0.000000 29.777348
LeftHandThumb1 -26.253704 0.000000 33.147579
Head -7.566375 15.907365 -2.230901
4195
root 1.378562 37.464165 5.606261 -2.458741 -2.503977 2.623354
RightUpLeg 5.595738 1.190532 -5.131860
RightLeg 0.579178 -0.000000 -0.000000
RightFoot -11.970550 -23.516250 17.691903
RightToeBase 11.907600 -0.000000 -0.000000
LeftUpLeg 1.241131 -8.024939 -1.645432
LeftLeg 8.970215 -0.000000 -0.000000
LeftFoot -11.886170 14.033959 -20.142791
LeftToeBase 9.061709 -0.000000 -0.000000
Spine 11.350608 -8.572873 0.903089
RightShoulder -2.660766 -15.672210 -22.187837
RightArm 6.644364 21.359990 28.521540
RightForeArm -172.572985 0.000000 38.979655
RightHand 95.861299 -0.000000 -160.000603
RightHandThumb1 -24.326973 -0.000000 -32.862282
LeftShoulder -26.315086 30.488816 6.615305
LeftArm 53.451822 -52.111168 -71.744678
LeftForeArm -13.018331 -0.000000 43.976690
LeftHand -32.305895 -0.000000 29.274279
LeftHandThumb1 -26.253704 0.000000 33.147579
Head -7.576042 15.862263 -1.964973
4196
root 1.432486 37.465111 5.625731 -2.564690 -2.524565 2.487364
RightUpLeg 5.616919 1.277925 -5.050219
RightLeg 0.805364 -0.000000 -0.000000
RightFoot -12.058524 -23.571039 17.860731
RightToeBase 12.162796 -0.000000 -0.000000
LeftUpLeg 1.538543 -8.238942 -1.631049
LeftLeg 8.533504 -0.000000 -0.000000
LeftFoot -11.806811 14.626084 -20.261819
LeftToeBase 9.146235 -0.000000 -0.000000
Spine 11.459800 -8.536143 0.829273
RightShoulder -2.602135 -15.518626 -22.168894
RightArm 6.582344 21.548260 28.415833
RightForeArm -172.664668 -0.000000 38.613733
RightHand 95.897244 0.000000 -160.158805
RightHandThumb1 -24.326973 -0.000000 -32.862282
LeftShoulder -26.187036 30.387457 6.860236
LeftArm 53.498967 -52.349498 -71.498718
LeftForeArm -12.842882 -0.000000 43.156864
LeftHand -32.281256 0.000000 28.955980
LeftHandThumb1 -26.253704 0.000000 33.147579
Head -7.613587 15.783099 -1.684507
4197
root 1.488226 37.472881 5.647475 -2.703596 -2.566194 2.386361
RightUpLeg 5.653687 1.316236 -5.013489
RightLeg 1.041889 -0.000000 -0.000000
RightFoot -12.091033 -23.603696 18.002602
RightToeBase 11.719432 -0.000000 -0.000000
LeftUpLeg 1.950946 -8.553355 -1.681782
LeftLeg 8.028449 -0.000000 -0.000000
LeftFoot -11.719886 15.026039 -20.221734
LeftToeBase 9.181897 -0.000000 -0.000000
Spine 11.612312 -8.456936 0.708322
RightShoulder -2.557059 -15.320424 -22.145738
RightArm 6.476433 21.616458 28.328114
RightForeArm -172.738802 -0.000000 38.280571
RightHand 95.920670 -0.000000 -160.279807
RightHandThumb1 -24.326973 -0.000000 -32.862282
LeftShoulder -26.070154 30.343891 7.080482
LeftArm 53.689977 -52.577197 -71.378199
LeftForeArm -12.712522 -0.000000 42.337882
LeftHand -32.152182 -0.000000 28.770302
LeftHandThumb1 -26.253704 0.000000 33.147579
Head -7.657306 15.771504 -1.362756
4198
root 1.543821 37.482048 5.655155 -2.753378 -2.633308 2.319567
RightUpLeg 5.527424 1.361711 -5.018569
RightLeg 1.385736 -0.000000 -0.000000
RightFoot -12.185462 -23.557115 18.222240
RightToeBase 11.639114 -0.000000 -0.000000
LeftUpLeg 2.263200 -8.766292 -1.734360
LeftLeg 7.572845 -0.000000 -0.000000
LeftFoot -11.596666 15.194269 -20.164575
LeftToeBase 9.487208 -0.000000 -0.000000
Spine 11.685014 -8.390459 0.533677
RightShoulder -2.490800 -15.181840 -22.085521
RightArm 6.433653 21.666099 28.224828
RightForeArm -172.901132 -0.000000 37.947147
RightHand 95.814300 -0.000000 -160.155797
RightHandThumb1 -24.326973 -0.000000 -32.862282
LeftShoulder -25.984577 30.209747 7.333410
LeftArm 53.637826 -52.754304 -71.015889
LeftForeArm -12.571253 0.000000 41.513949
LeftHand -32.109731 -0.000000 28.578364
LeftHandThumb1 -26.253704 0.000000 33.147579
Head -7.710578 15.766177 -1.005016
4199
root 1.593916 37.496412 5.658299 -2.778273 -2.701500 2.236122
RightUpLeg 5.356454 1.468964 -4.989773
RightLeg 1.738535 -0.000000 -0.000000
RightFoot -12.216019 -23.654679 18.441621
RightToeBase 11.696394 -0.000000 -0.000000
LeftUpLeg 2.523516 -8.949285 -1.732427
LeftLeg 7.153231 -0.000000 -0.000000
LeftFoot -11.415982 15.450133 -20.173102
LeftToeBase 9.469866 -0.000000 -0.000000
Spine 11.725601 -8.276076 0.367203
RightShoulder -2.454411 -15.029770 -21.982789
RightArm 6.347117 21.661449 28.123277
RightForeArm -172.957051 0.000000 37.646332
RightHand 95.801104 0.000000 -160.306564
RightHandThumb1 -24.326973 -0.000000 -32.862282
LeftShoulder -25.827675 30.111095 7.628419
LeftArm 53.523602 -52.925726 -70.590479
LeftForeArm -12.412522 0.000000 40.706324
LeftHand -32.148313 -0.000000 28.407601
LeftHandThumb1 -26.253704 0.000000 33.147579
Head -7.751439 15.686832 -0.625675
4200
root 1.640223 37.509619 5.658273 -2.766950 -2.817024 2.148113
RightUpLeg 5.069184 1.387490 -4.946578
RightLeg 2.227049 -0.000000 -0.000000
RightFoot -12.241896 -23.600908 18.457794
RightToeBase 11.627213 -0.000000 -0.000000
LeftUpLeg 2.694074 -8.797146 -1.676069
LeftLeg 6.782739 -0.000000 -0.000000
LeftFoot -11.113728 15.364682 -20.146722
LeftToeBase 9.150920 -0.000000 -0.000000
Spine 11.726772 -8.139058 0.212332
RightShoulder -2.385992 -14.883205 -21.937135
RightArm 6.294975 21.711480 28.126934
RightForeArm -173.076944 -0.000000 37.316389
RightHand 95.781753 -0.000000 -160.346598
RightHandThumb1 -24.326973 -0.000000 -32.862282
LeftShoulder -25.723564 30.056063 7.897749
LeftArm 53.426205 -53.058260 -70.151469
LeftForeArm -12.318204 -0.000000 39.828587
LeftHand -32.042005 -0.000000 28.289165
LeftHandThumb1 -26.253704 0.000000 33.147579
Head -7.768837 15.686248 -0.217343
4201
root 1.683782 37.522585 5.656610 -2.734800 -2.975946 2.034946
RightUpLeg 4.746416 1.390819 -4.869697
RightLeg 2.713768 -0.000000 -0.000000
RightFoot -12.320132 -23.562176 18.626258
RightToeBase 11.627181 -0.000000 -0.000000
LeftUpLeg 2.830410 -8.472564 -1.580120
LeftLeg 6.430773 -0.000000 -0.000000
LeftFoot -10.789454 15.155968 -19.960634
LeftToeBase 9.307539 -0.000000 -0.000000
Spine 11.689764 -7.949803 0.110385
RightShoulder -2.349497 -14.808706 -21.861430
RightArm 6.242600 21.736471 28.072626
RightForeArm -173.124284 0.000000 37.063695
RightHand 95.795858 -0.000000 -160.467618
RightHandThumb1 -24.326973 -0.000000 -32.862282
LeftShoulder -25.576218 29.991604 8.187569
LeftArm 53.257840 -53.184659 -69.678843
LeftForeArm -12.208414 -0.000000 38.964500
LeftHand -31.964935 -0.000000 28.062855
LeftHandThumb1 -26.253704 0.000000 33.147579
Head -7.758939 15.638060 0.135976
4202
root 1.725243 37.536691 5.652558 -2.676443 -3.166286 1.854518
RightUpLeg 4.350040 1.366854 -4.722631
RightLeg 3.262076 -0.000000 -0.000000
RightFoot -12.338693 -23.572367 18.784488
RightToeBase 11.489021 -0.000000 -0.000000
LeftUpLeg 2.933570 -8.156073 -1.418334
LeftLeg 6.128133 -0.000000 -0.000000
LeftFoot -10.555562 14.979050 -19.810179
LeftToeBase 9.281501 -0.000000 -0.000000
Spine 11.629969 -7.760036 0.122139
RightShoulder -2.297707 -14.673873 -21.829386
RightArm 6.189535 21.662494 27.993214
RightForeArm -173.171861 -0.000000 36.758209
RightHand 95.807435 -0.000000 -160.454429
RightHandThumb1 -24.326973 -0.000000 -32.862282
LeftShoulder -25.495435 29.971202 8.369902
LeftArm 53.176017 -53.297850 -69.218687
LeftForeArm -12.206782 -0.000000 38.054568
LeftHand -31.854942 -0.000000 27.773705
LeftHandThumb1 -26.253704 0.000000 33.147579
Head -7.750658 15.626885 0.430502
4203
root 1.764435 37.550057 5.651950 -2.587898 -3.411638 1.614745
RightUpLeg 3.912272 1.296943 -4.516580
RightLeg 3.845728 -0.000000 -0.000000
RightFoot -12.234007 -23.516234 18.655791
RightToeBase 11.238207 -0.000000 -0.000000
LeftUpLeg 3.080082 -7.939056 -1.204004
LeftLeg 5.715296 -0.000000 -0.000000
LeftFoot -10.410630 14.935056 -19.713130
LeftToeBase 9.366488 -0.000000 -0.000000
Spine 11.508680 -7.561908 0.250312
RightShoulder -2.230601 -14.476553 -21.873353
RightArm 6.131225 21.584315 27.954713
RightForeArm -173.278992 -0.000000 36.487959
RightHand 95.797267 -0.000000 -160.685762
RightHandThumb1 -24.326973 -0.000000 -32.862282
LeftShoulder -25.433932 29.897182 8.486894
LeftArm 52.912342 -53.372573 -68.542677
LeftForeArm -12.321920 -0.000000 37.104976
LeftHand -31.596383 -0.000000 27.556730
LeftHandThumb1 -26.253704 0.000000 33.147579
Head -7.700329 15.577187 0.574650
4204
root 1.800719 37.564581 5.645149 -2.430397 -3.711924 1.347452
RightUpLeg 3.366869 1.269016 -4.277865
RightLeg 4.500813 -0.000000 -0.000000
RightFoot -12.167097 -23.390231 18.526933
RightToeBase 10.921375 -0.000000 -0.000000
LeftUpLeg 3.136400 -7.758047 -0.960088
LeftLeg 5.349135 -0.000000 -0.000000
LeftFoot -10.311673 14.996535 -19.677948
LeftToeBase 9.395845 -0.000000 -0.000000
Spine 11.310256 -7.339911 0.438838
RightShoulder -2.143213 -14.383315 -21.884237
RightArm 6.093642 21.555478 27.841158
RightForeArm -173.199199 -0.000000 36.243285
RightHand 95.895477 -0.000000 -161.001077
RightHandThumb1 -24.326973 -0.000000 -32.862282
LeftShoulder -25.383836 29.885959 8.534937
LeftArm 52.723398 -53.514330 -67.971229
LeftForeArm -12.431427 -0.000000 36.182586
LeftHand -31.347788 0.000000 27.261611
LeftHandThumb1 -26.253704 0.000000 33.147579
Head -7.631658 15.539329 0.672045
4205
root 1.844245 37.580830 5.645496 -2.357287 -3.998755 1.105751
RightUpLeg 2.900050 1.132184 -4.065510
RightLeg 5.204507 -0.000000 -0.000000
RightFoot -12.103792 -23.191973 18.324228
RightToeBase 10.179278 -0.000000 -0.000000
LeftUpLeg 3.302212 -7.685931 -0.780070
LeftLeg 4.956695 -0.000000 -0.000000
LeftFoot -10.213787 15.168555 -19.672099
LeftToeBase 9.291482 -0.000000 -0.000000
Spine 11.204052 -7.183911 0.620970
RightShoulder -2.033801 -14.251069 -21.950550
RightArm 6.115903 21.539858 27.776351
RightForeArm -173.253330 -0.000000 35.946016
RightHand 95.977789 -0.000000 -161.061667
RightHandThumb1 -24.326973 -0.000000 -32.862282
LeftShoulder -25.403098 29.879246 8.523727
LeftArm 52.647042 -53.641140 -67.530870
LeftForeArm -12.507454 -0.000000 35.254358
LeftHand -31.148672 -0.000000 26.973275
LeftHandThumb1 -26.253704 0.000000 33.147579
Head -7.575756 15.623303 0.689349
4206
root 1.880647 37.601473 5.646293 -2.323131 -4.231861 0.770713
RightUpLeg 2.472861 0.857116 -3.740630
RightLeg 5.928119 -0.000000 -0.000000
RightFoot -11.984734 -23.025924 18.023741
RightToeBase 9.126591 -0.000000 -0.000000
LeftUpLeg 3.493772 -7.587622 -0.498344
LeftLeg 4.596101 -0.000000 -0.000000
LeftFoot -10.140759 15.268585 -19.693208
LeftToeBase 9.457736 -0.000000 -0.000000
Spine 11.169696 -7.027183 0.943649
RightShoulder -1.977417 -14.123148 -22.022929
RightArm 6.101518 21.554158 27.676991
RightForeArm -173.103543 -0.000000 35.663582
RightHand 96.062836 -0.000000 -161.359662
RightHandThumb1 -24.326973 -0.000000 -32.862282
LeftShoulder -25.308871 29.776458 8.539083
LeftArm 52.528229 -53.794510 -67.131048
LeftForeArm -12.409192 -0.000000 34.363003
LeftHand -30.934321 -0.000000 26.684619
LeftHandThumb1 -26.253704 0.000000 33.147579
Head -7.558278 15.561963 0.623951
